<svg width="1075" height="313" viewBox="0 0 1075 313" fill="none" xmlns="http://www.w3.org/2000/svg">
<path d="M87.7333 0.785202C68.9333 3.71854 44.6667 17.0519 32 31.1852C25.4667 38.5185 15.6 56.1185 13.8667 63.7185L13.0667 67.4519H21.8667H30.8L32.8 62.5185C46.9333 28.7852 88.8 10.2519 126.4 21.1852C146.8 27.1852 163.733 40.5185 172.133 57.5852L176.667 66.7852L185.6 67.1852L194.533 67.5852L193.333 63.1852C187.733 43.1852 168 20.2519 148 10.3852C141.733 7.31854 133.067 3.9852 128.667 2.7852C118.933 0.118535 98.1333 -0.814798 87.7333 0.785202Z" fill="black"/>
<path d="M307.2 72.6517C306.933 72.9184 306.667 108.785 306.667 152.118V231.052L326.4 231.718C337.2 232.118 346.4 232.252 347.067 231.852C347.6 231.585 348 217.052 348 199.452C348 163.585 347.2 166.118 359.333 166.118C368.267 166.118 369.333 167.185 378 183.852C381.467 190.652 384.8 196.652 385.333 197.452C386.667 199.185 398.4 221.318 401.2 227.052L403.2 231.452L414.667 231.585C420.933 231.585 430.4 231.985 435.733 232.252C444.133 232.785 445.333 232.518 445.333 230.518C445.333 227.852 425.733 191.052 411.067 166.252C407.867 160.785 404.933 154.785 404.533 152.918C404 150.252 407.867 142.385 421.333 118.785C437.867 89.8518 446.667 73.7184 446.667 72.2517C446.667 71.8517 437.333 71.7184 426 71.8517C409.733 72.1184 405.067 72.5184 403.6 74.1184C402.533 75.1851 394.933 88.1184 386.667 102.785C378.4 117.452 370.533 130.652 369.2 132.252C366.933 134.652 365.2 135.052 357.6 134.785L348.667 134.652L348.267 103.318L348 72.1184H327.867C316.8 72.1184 307.467 72.3851 307.2 72.6517Z" fill="black"/>
<path d="M459.6 72.3852C458.8 73.7185 458.667 227.452 459.467 230.119C459.867 231.719 463.067 232.119 478.267 231.985C488.4 231.852 497.067 231.719 497.733 231.585C498.267 231.452 498.667 211.852 498.667 187.719C498.667 163.719 499.2 143.452 499.733 142.519C500.8 140.785 539.2 139.452 540.933 141.185C541.467 141.852 542.133 162.252 542.267 186.519L542.533 230.785L560.4 231.452C570.267 231.852 579.333 231.852 580.533 231.719C582.667 231.319 582.8 227.319 582.4 181.719C582 126.385 582 127.052 572.533 117.719C564.667 109.852 556.933 108.252 533.333 109.185C522.667 109.719 511.333 110.652 508.133 111.452C498.533 113.719 498.667 113.985 498.667 91.4519V71.4519H479.467C468.8 71.4519 459.867 71.8519 459.6 72.3852Z" fill="black"/>
<path d="M739.2 73.3185C738.8 74.2518 738.8 105.185 738.933 142.252L739.333 209.452L743.067 217.185C745.6 222.252 748.267 225.585 751.067 226.919C753.333 228.119 756 229.852 756.933 230.919C759.467 233.452 772.133 234.652 786.4 233.719C793.333 233.185 799.2 232.652 799.467 232.385C799.733 232.119 800.133 225.452 800.267 217.452L800.667 202.785L791.733 201.985C786.8 201.585 781.867 200.519 780.8 199.585C778.933 197.985 778.667 189.852 778.4 134.919L778 72.1185L758.933 71.9852C745.333 71.8518 739.6 72.2518 739.2 73.3185Z" fill="black"/>
<path d="M1035.6 72.3852C1035.07 72.7852 1034.67 81.5852 1034.67 91.7185V110.119H1013.2C985.333 110.119 974.533 111.719 966.533 117.185C952.533 126.519 950.133 136.252 950.933 179.985C951.333 208.119 951.6 209.852 954.667 216.119C958.4 223.585 966.667 230.652 974.4 232.785C980.667 234.519 998.933 234.519 1008.13 232.785C1012.13 231.985 1020 229.052 1025.87 226.119C1031.6 223.185 1036.8 221.185 1037.47 221.585C1038.13 221.985 1038.67 224.252 1038.67 226.785C1038.67 229.185 1039.47 231.452 1040.4 231.719C1041.2 231.985 1049.33 231.985 1058.4 231.719L1074.67 231.185V151.319V71.4519H1055.6C1045.07 71.4519 1036 71.8519 1035.6 72.3852ZM1034.67 168.652C1034.67 188.252 1034.27 195.452 1033.07 196.385C1030.8 197.985 1012 200.785 1003.07 200.785C991.2 200.785 992 202.785 992 171.585C992 156.385 992.4 143.452 992.933 143.052C993.333 142.519 1002.93 142.119 1014.27 142.119H1034.67V168.652Z" fill="black"/>
<path d="M0.933333 87.0518C0.4 87.4518 0 112.385 0 142.385V196.785H47.2C77.7333 196.785 94.8 197.319 95.3333 198.119C95.8667 198.919 95.7333 204.252 95.2 210.119L94.2667 220.785L88.8 222.252C82.8 223.719 69.3333 231.985 69.3333 234.119C69.3333 234.919 76.1333 235.452 86.4 235.585C95.7333 235.719 110.8 235.852 119.733 235.852C128.8 235.985 136.533 235.585 136.933 235.052C138.667 232.252 127.733 224.785 118.933 222.785C113.733 221.719 113.067 219.585 113.6 206.785L114 197.452L161.067 197.052L208 196.785L208.133 174.385C208.4 155.852 208.267 133.719 208 91.7185V86.1185H104.933C48.1333 86.1185 1.33333 86.5185 0.933333 87.0518ZM190 141.452V178.785L104.4 178.919L18.9333 179.185L18.1333 176.252C17.0667 172.385 17.0667 105.452 18.1333 104.385C18.6667 103.852 57.4667 103.719 104.533 103.852L190 104.119V141.452Z" fill="black"/>
<path d="M54.5334 140.652C36.1334 159.185 21.3334 174.652 21.8668 175.052C22.2668 175.585 37.7334 160.785 56.0001 142.119C74.4001 123.585 89.2001 108.119 88.8001 107.852C88.4001 107.452 73.0668 122.252 54.5334 140.652Z" fill="black"/>
<path d="M98.6666 134.118C97.8666 135.585 97.4666 136.785 97.6 136.785C97.8666 136.785 99.0666 135.585 100.4 134.118C101.6 132.652 102.133 131.452 101.333 131.452C100.667 131.452 99.4666 132.652 98.6666 134.118Z" fill="black"/>
<path d="M93.3334 139.719C91.7334 142.652 91.7334 142.652 94.1334 140.519C95.4667 139.185 96.1334 137.852 95.7334 137.319C95.2 136.919 94.1334 137.985 93.3334 139.719Z" fill="black"/>
<path d="M84.5333 149.052L82 152.118L85.0667 149.585C87.8667 147.185 88.6667 146.118 87.6 146.118C87.3333 146.118 86 147.452 84.5333 149.052Z" fill="black"/>
<path d="M70.6668 162.119C69.4668 162.919 69.3335 163.452 70.2668 163.452C71.0668 163.452 72.2668 162.785 72.6668 162.119C73.7335 160.519 73.2001 160.519 70.6668 162.119Z" fill="black"/>
<path d="M633.6 110.918C620.8 111.852 610.133 112.785 609.867 113.185C609.6 113.452 609.2 119.852 609.067 127.585L608.667 141.452L614 141.185C682.8 137.318 676.933 136.785 677.6 148.118L678 154.785L649.333 155.585C617.733 156.385 614.8 157.052 606.4 164.918C600.533 170.518 597.333 180.385 597.333 192.918C597.333 213.718 602.267 223.718 615.467 230.252C623.733 234.385 624.267 234.385 638.933 233.852C655.2 233.185 663.867 230.652 673.467 224.118C679.333 219.985 681.333 220.652 681.333 226.652V231.052L693.067 231.985C699.6 232.518 708 232.518 711.867 231.985L718.933 231.052L718.4 180.918C718.133 141.718 717.6 130.118 716.133 127.452C712.267 120.385 703.467 112.785 696.8 110.785C688.667 108.385 666.4 108.385 633.6 110.918ZM677.067 184.785C678.133 184.785 678.667 186.918 678.667 190.785C678.667 198.518 677.2 199.185 658 201.052C639.467 202.918 638.4 202.385 638.933 192.252L639.333 185.452L654.667 184.652C663.067 184.252 671.2 184.118 672.667 184.385C674.133 184.518 676.133 184.785 677.067 184.785Z" fill="black"/>
<path d="M838.267 110.652C830.267 112.785 822.933 118.652 818.667 126.252C815.333 131.985 815.333 132.652 814.933 167.318C814.667 186.785 814.8 205.052 815.2 208.118C816.4 215.985 823.467 226.118 830.667 230.118C836.533 233.318 837.333 233.452 862 233.318C883.867 233.185 926.4 230.652 927.733 229.452C928.933 228.385 929.6 202.385 928.533 201.718C927.867 201.452 914.8 201.985 899.333 203.052C869.867 205.052 857.6 204.785 855.867 201.852C855.2 200.918 854.667 197.318 854.667 193.852V187.452L893.733 187.185L932.667 186.785V160.785C932.667 135.185 932.667 134.652 928.933 127.318C925.067 119.318 918.8 113.985 909.733 110.652C902.8 108.252 847.467 108.252 838.267 110.652ZM891.067 139.318C891.733 139.985 892.667 144.518 892.933 149.318L893.733 158.118H880.4C873.067 158.118 864.267 158.518 860.8 158.918L854.667 159.852V150.652C854.667 145.585 855.2 140.785 855.733 139.852C856.267 139.052 859.067 137.985 862 137.718C869.867 136.785 889.6 137.852 891.067 139.318Z" fill="black"/>
<path d="M13.3333 217.052C13.3333 217.985 14.7999 224.652 16.6666 231.852C24.5333 263.585 46.7999 292.118 74.6666 306.118C94.1333 315.985 118 314.918 138.267 303.318C154.667 293.985 170.8 277.052 180.533 259.318C184.667 251.852 196 220.518 196 216.785C196 215.985 191.867 215.452 186.8 215.452H177.6L176.667 219.718C176.133 222.118 173.733 229.452 171.2 235.852C156.933 273.185 126.133 297.985 98.2666 294.785C71.1999 291.585 39.5999 257.585 33.0666 224.652L31.3333 216.118L22.3999 215.718C15.5999 215.452 13.3333 215.718 13.3333 217.052Z" fill="black"/>
<path d="M87.5999 257.052C80.9333 258.519 77.3333 262.119 80.3999 264.519C85.5999 268.785 116.267 269.052 127.333 264.785C130.667 263.452 130.933 263.185 129.067 261.319C124 256.252 102.267 253.985 87.5999 257.052Z" fill="black"/>
</svg>
