<svg width="209" height="313" viewBox="0 0 209 313" fill="none" xmlns="http://www.w3.org/2000/svg">
<path d="M87.7332 0.785185C68.9332 3.71852 44.6667 17.0519 32 31.1852C25.4667 38.5185 15.6 56.1185 13.8667 63.7185L13.0667 67.4519H21.8666H30.7999L32.7999 62.5185C46.9332 28.7852 88.7999 10.2519 126.4 21.1852C146.8 27.1852 163.733 40.5185 172.133 57.5852L176.667 66.7852L185.6 67.1852L194.533 67.5852L193.333 63.1852C187.733 43.1852 168 20.2519 148 10.3852C141.733 7.31852 133.067 3.98518 128.667 2.78518C118.933 0.118518 98.1332 -0.814815 87.7332 0.785185Z" fill="black"/>
<path d="M0.933333 87.0518C0.4 87.4518 0 112.385 0 142.385V196.785H47.2C77.7333 196.785 94.8 197.319 95.3333 198.119C95.8667 198.919 95.7333 204.252 95.2 210.119L94.2667 220.785L88.8 222.252C82.8 223.719 69.3333 231.985 69.3333 234.119C69.3333 234.919 76.1333 235.452 86.4 235.585C95.7333 235.719 110.8 235.852 119.733 235.852C128.8 235.985 136.533 235.585 136.933 235.052C138.667 232.252 127.733 224.785 118.933 222.785C113.733 221.719 113.067 219.585 113.6 206.785L114 197.452L161.067 197.052L208 196.785L208.133 174.385C208.4 155.852 208.267 133.719 208 91.7185V86.1185H104.933C48.1333 86.1185 1.33333 86.5185 0.933333 87.0518ZM190 141.452V178.785L104.4 178.919L18.9333 179.185L18.1333 176.252C17.0667 172.385 17.0667 105.452 18.1333 104.385C18.6667 103.852 57.4667 103.719 104.533 103.852L190 104.119V141.452Z" fill="black"/>
<path d="M54.5334 140.652C36.1334 159.185 21.3334 174.652 21.8668 175.052C22.2668 175.585 37.7334 160.785 56.0001 142.119C74.4001 123.585 89.2001 108.119 88.8001 107.852C88.4001 107.452 73.0668 122.252 54.5334 140.652Z" fill="black"/>
<path d="M84.5333 149.052L82 152.118L85.0667 149.585C87.8667 147.185 88.6667 146.118 87.6 146.118C87.3333 146.118 86 147.452 84.5333 149.052Z" fill="black"/>
<path d="M70.6668 162.119C69.4668 162.919 69.3335 163.452 70.2668 163.452C71.0668 163.452 72.2668 162.785 72.6668 162.119C73.7335 160.519 73.2001 160.519 70.6668 162.119Z" fill="black"/>
<path d="M13.3333 217.052C13.3333 217.985 14.7999 224.652 16.6666 231.852C24.5333 263.585 46.7999 292.118 74.6666 306.118C94.1333 315.985 118 314.918 138.267 303.318C154.667 293.985 170.8 277.052 180.533 259.318C184.667 251.852 196 220.518 196 216.785C196 215.985 191.867 215.452 186.8 215.452H177.6L176.667 219.718C176.133 222.118 173.733 229.452 171.2 235.852C156.933 273.185 126.133 297.985 98.2666 294.785C71.1999 291.585 39.5999 257.585 33.0666 224.652L31.3333 216.118L22.3999 215.718C15.5999 215.452 13.3333 215.718 13.3333 217.052Z" fill="black"/>
<path d="M87.5999 257.052C80.9333 258.519 77.3333 262.119 80.3999 264.519C85.5999 268.785 116.267 269.052 127.333 264.785C130.667 263.452 130.933 263.185 129.067 261.319C124 256.252 102.267 253.985 87.5999 257.052Z" fill="black"/>
</svg>
